<svg width="120" height="96" viewBox="0 0 120 96" fill="none" xmlns="http://www.w3.org/2000/svg">
<rect x="0.5" y="0.5" width="119" height="95" rx="11.5" fill="#FCECBA" stroke="#F9D462"/>
<path d="M47.793 0.5L59.793 12.5H108C111.166 12.5 113.865 13.6228 116.124 15.8818C118.383 18.1408 119.504 20.8374 119.5 23.999V84C119.5 87.1665 118.379 89.866 116.124 92.125C113.869 94.3833 111.171 95.5037 108.001 95.5H12C8.83354 95.5 6.13673 94.3789 3.88184 92.124C1.76801 90.0102 0.648542 87.5062 0.513672 84.5889L0.5 83.999V12C0.5 8.8339 1.62219 6.13675 3.88086 3.88184C5.99894 1.76736 8.50261 0.64842 11.4131 0.513672L12.001 0.5H47.793Z" fill="#FBE49D" stroke="#F9D462"/>
</svg>
