<svg width="47" height="24" viewBox="0 0 47 24" fill="none" xmlns="http://www.w3.org/2000/svg">
<path d="M0 23.4733V0.52675H4.2604V23.4733H0Z" fill="black"/>
<path d="M16.8004 24C14.6206 24 12.6941 23.5062 11.0207 22.5185C9.36943 21.5089 8.0814 20.1043 7.15666 18.3045C6.23192 16.5048 5.76955 14.4088 5.76955 12.0165C5.76955 9.60219 6.23192 7.4952 7.15666 5.69547C8.0814 3.89575 9.36943 2.50206 11.0207 1.5144C12.6941 0.504801 14.6206 0 16.8004 0C19.0021 0 20.9287 0.504801 22.58 1.5144C24.2533 2.50206 25.5523 3.89575 26.4771 5.69547C27.4018 7.4952 27.8642 9.60219 27.8642 12.0165C27.8642 14.4088 27.3908 16.5048 26.4441 18.3045C25.5193 20.1043 24.2203 21.5089 22.547 22.5185C20.8956 23.5062 18.9801 24 16.8004 24ZM16.7673 19.9177C18.1765 19.9177 19.3764 19.5995 20.3672 18.963C21.38 18.3045 22.1616 17.3827 22.7121 16.1975C23.2625 15.0123 23.5377 13.6187 23.5377 12.0165C23.5377 10.3923 23.2625 8.98765 22.7121 7.80247C22.1616 6.61728 21.38 5.70645 20.3672 5.06996C19.3764 4.41152 18.1765 4.0823 16.7673 4.0823C15.4243 4.0823 14.2353 4.40055 13.2005 5.03704C12.1877 5.67353 11.4061 6.58436 10.8556 7.76955C10.3272 8.95473 10.063 10.3704 10.063 12.0165C10.063 13.6406 10.3272 15.0453 10.8556 16.2305C11.4061 17.4156 12.1877 18.3265 13.2005 18.963C14.2353 19.5995 15.4243 19.9177 16.7673 19.9177Z" fill="black"/>
<path d="M38.0056 24C35.0993 24 32.8975 23.2647 31.4003 21.7942C29.9252 20.3237 29.1876 18.118 29.1876 15.177V0.52675H33.448V14.6831C33.448 15.8683 33.5691 16.8669 33.8113 17.679C34.0755 18.4691 34.5378 19.0727 35.1984 19.4897C35.8809 19.8848 36.8167 20.0823 38.0056 20.0823C39.1946 20.0823 40.1193 19.8848 40.7798 19.4897C41.4624 19.0727 41.9358 18.4691 42.2 17.679C42.4642 16.8669 42.5963 15.8793 42.5963 14.7161V0.52675H46.8567V15.0123C46.8567 17.9973 46.1081 20.2469 44.6109 21.7613C43.1137 23.2538 40.9119 24 38.0056 24Z" fill="black"/>
</svg>
